#N canvas 1143 906 940 321 10;
#X msg 18 37 connect localhost 9001;
#X obj 27 116 sendOSC;
#X msg 45 63 disconnect;
#X msg 142 93 send /amp/front \$1;
#X floatatom 202 30 5 0 100 0 - - -, f 5;
#X obj 197 62 / 100;
#X floatatom 345 29 5 0 100 0 - - -, f 5;
#X obj 340 61 / 100;
#X floatatom 472 28 5 0 100 0 - - -, f 5;
#X obj 467 60 / 100;
#X msg 285 92 send /amp/center \$1;
#X msg 412 91 send /amp/back \$1;
#X connect 0 0 1 0;
#X connect 2 0 1 0;
#X connect 3 0 1 0;
#X connect 4 0 5 0;
#X connect 5 0 3 0;
#X connect 6 0 7 0;
#X connect 7 0 10 0;
#X connect 8 0 9 0;
#X connect 9 0 11 0;
#X connect 10 0 1 0;
#X connect 11 0 1 0;
