#N canvas 910 368 892 674 10;
#X obj 59 47 inlet~;
#X obj 105 47 inlet~;
#X obj 151 47 inlet~;
#X obj 160 225 outlet~;
#X obj 197 47 inlet;
#X obj 237 47 inlet;
#X obj 277 47 inlet;
#X text 59 20 Front;
#X text 105 20 Center;
#X text 153 20 Back;
#X obj 160 124 *~ 1;
#X obj 160 173 *~ 1;
#X obj 71 124 *~ 0.7;
#X obj 237 124 *~ 0.7;
#X connect 0 0 12 0;
#X connect 1 0 10 0;
#X connect 2 0 13 0;
#X connect 4 0 12 1;
#X connect 5 0 10 1;
#X connect 6 0 13 1;
#X connect 10 0 11 0;
#X connect 11 0 3 0;
#X connect 12 0 11 0;
#X connect 13 0 11 0;
