#N canvas 491 168 1131 491 10;
#X obj 111 73 adc~ 1 2 3 4 5 6;
#X obj 176 224 dac~;
#X text 299 33 For the moment a simple downmixer patch;
#X obj 130 25 input-vu;
#N canvas 1531 256 864 478 osc-receive 0;
#X obj 25 20 import mrpeach;
#X obj 25 56 udpreceive 9001;
#X obj 25 92 unpackOSC;
#X obj 25 164 unpack f;
#X obj 25 211 outlet;
#X obj 25 128 route /amp/front /amp/center /amp/back;
#X obj 117 164 unpack f;
#X obj 117 211 outlet;
#X obj 202 164 unpack f;
#X obj 202 211 outlet;
#X connect 1 0 2 0;
#X connect 2 0 5 0;
#X connect 3 0 4 0;
#X connect 5 0 3 0;
#X connect 5 1 6 0;
#X connect 5 2 8 0;
#X connect 6 0 7 0;
#X connect 8 0 9 0;
#X restore 299 68 pd osc-receive;
#X obj 64 156 downmix;
#X obj 244 156 downmix;
#X connect 0 0 5 0;
#X connect 0 1 6 0;
#X connect 0 2 6 1;
#X connect 0 2 5 1;
#X connect 0 4 5 2;
#X connect 0 5 6 2;
#X connect 4 0 6 3;
#X connect 4 0 5 3;
#X connect 4 1 6 4;
#X connect 4 1 5 4;
#X connect 4 2 6 5;
#X connect 4 2 5 5;
#X connect 5 0 1 0;
#X connect 6 0 1 1;
