#N canvas 1231 326 1166 934 10;
#X obj 59 47 inlet~;
#X obj 105 47 inlet~;
#X obj 151 47 inlet~;
#X obj 159 274 outlet~;
#X text 59 20 Front;
#X text 105 20 Center;
#X text 153 20 Back;
#X obj 160 124 *~ 1;
#X obj 197 47 r fa;
#X obj 265 47 r ba;
#X obj 353 134 pvu~;
#X obj 353 206 vu 15 120 empty empty -1 -8 0 10 -66577 -1 1 0;
#X obj 231 47 r ca;
#X obj 159 212 *~ 1;
#X obj 71 124 *~ 0.353;
#X obj 237 124 *~ 0.353;
#X connect 0 0 14 0;
#X connect 1 0 7 0;
#X connect 2 0 15 0;
#X connect 7 0 13 0;
#X connect 8 0 14 1;
#X connect 9 0 15 1;
#X connect 10 0 11 0;
#X connect 12 0 7 1;
#X connect 13 0 3 0;
#X connect 13 0 10 0;
#X connect 14 0 13 0;
#X connect 15 0 13 0;
#X coords 0 -1 1 1 61 177 1 344 167;
