#N canvas 815 200 643 539 10;
#X obj 45 149 pvu~;
#X obj 45 188 vu 15 120 empty empty -1 -8 0 10 -66577 -1 1 0;
#X obj 106 188 vu 15 120 empty empty -1 -8 0 10 -66577 -1 1 0;
#X obj 105 149 pvu~, f 5;
#X obj 46 35 adc~ 1 2 3 4 5 6;
#X obj 165 149 pvu~;
#X obj 165 188 vu 15 120 empty empty -1 -8 0 10 -66577 -1 1 0;
#X obj 226 188 vu 15 120 empty empty -1 -8 0 10 -66577 -1 1 0;
#X obj 225 149 pvu~, f 5;
#X obj 286 149 pvu~;
#X obj 286 188 vu 15 120 empty empty -1 -8 0 10 -66577 -1 1 0;
#X obj 347 188 vu 15 120 empty empty -1 -8 0 10 -66577 -1 1 0;
#X obj 346 149 pvu~, f 5;
#X connect 0 0 1 0;
#X connect 3 0 2 0;
#X connect 4 0 0 0;
#X connect 4 1 3 0;
#X connect 4 2 5 0;
#X connect 4 3 8 0;
#X connect 4 4 9 0;
#X connect 4 5 12 0;
#X connect 5 0 6 0;
#X connect 8 0 7 0;
#X connect 9 0 10 0;
#X connect 12 0 11 0;
