#N canvas 516 290 503 682 10;
#X obj 28 54 adc~ 1 2 3 4 5 6;
#X obj 60 366 dac~;
#X obj 167 5 input-vu;
#N canvas 1201 438 864 524 osc-receive 0;
#X obj 25 20 import mrpeach;
#X obj 25 56 udpreceive 9001;
#X obj 25 92 unpackOSC;
#X obj 25 164 unpack f;
#X obj 25 128 route /amp/front /amp/center /amp/back;
#X obj 117 164 unpack f;
#X obj 202 164 unpack f;
#X obj 25 211 s fao;
#X obj 202 211 s bao;
#X obj 117 211 s cao;
#X connect 1 0 2 0;
#X connect 2 0 4 0;
#X connect 3 0 7 0;
#X connect 4 0 3 0;
#X connect 4 1 5 0;
#X connect 4 2 6 0;
#X connect 5 0 9 0;
#X connect 6 0 8 0;
#X restore 166 32 pd osc-receive;
#X obj 15 145 downmix~;
#X obj 81 145 downmix~;
#X obj 32 5 import moonlib;
#X text 121 380 A simple downmixer patch;
#N canvas 1293 506 501 322 input 0;
#X obj 99 62 mknob 25 100 0 1 0 1 fa fao Front -2 -6 0 8 -262144 -1
-1 6700 1;
#X obj 131 62 mknob 25 100 0 1 0 0 ca cao Center -2 -6 0 8 -262144
-1 -1 9900 1;
#X obj 163 62 mknob 25 100 0 1 0 0 ba bao Back -2 -6 0 8 -262144 -1
-1 6930 1;
#X obj 97 105 r fa;
#X floatatom 90 138 5 0 0 0 - - -, f 5;
#X floatatom 130 138 5 0 0 0 - - -, f 5;
#X floatatom 170 138 5 0 0 0 - - -, f 5;
#X obj 167 105 r ba;
#X obj 132 105 r ca;
#X connect 3 0 4 0;
#X connect 7 0 6 0;
#X connect 8 0 5 0;
#X coords 0 -1 1 1 97 60 1 95 30;
#X restore 165 68 pd input;
#X connect 0 0 4 0;
#X connect 0 1 5 0;
#X connect 0 2 5 1;
#X connect 0 2 4 1;
#X connect 0 4 4 2;
#X connect 0 5 5 2;
#X connect 4 0 1 0;
#X connect 5 0 1 1;
